<svg xmlns="http://www.w3.org/2000/svg" width="27.115" height="30.128" viewBox="0 0 27.115 30.128">
  <path id="date_icon" d="M162.6,49.681h1.506a3.013,3.013,0,0,1,3.013,3.013v21.09a3.013,3.013,0,0,1-3.013,3.013H143.017A3.013,3.013,0,0,1,140,73.783V52.693a3.013,3.013,0,0,1,3.013-3.013h1.506V48.174a1.506,1.506,0,0,1,3.013,0v1.506h12.051V48.174a1.506,1.506,0,0,1,3.013,0Zm1.506,5.272v2.26H143.017v16.57h21.089Zm-18.077,5.272h6.026v6.025h-6.026Z" transform="translate(-140.004 -46.668)" fill="#333"/>
</svg>
