<svg xmlns="http://www.w3.org/2000/svg" width="32" height="32" viewBox="0 0 32 32">
  <path id="linkedin" d="M28.98,27.54V21.293c0-3.347-1.787-4.9-4.169-4.9a3.594,3.594,0,0,0-3.263,1.8V16.645H17.926c.048,1.022,0,10.894,0,10.894h3.621V21.455a2.469,2.469,0,0,1,.119-.883,1.981,1.981,0,0,1,1.857-1.324c1.311,0,1.835,1,1.835,2.463V27.54H28.98ZM14.111,15.158a1.888,1.888,0,1,0,.024-3.765,1.888,1.888,0,1,0-.047,3.765ZM20,36A16,16,0,1,1,36,20,16,16,0,0,1,20,36Zm-4.078-8.46V16.645H12.3V27.54Z" transform="translate(-4 -4)" fill="#333" fill-rule="evenodd"/>
</svg>
