<svg id="location_icon" xmlns="http://www.w3.org/2000/svg" width="17.273" height="28" viewBox="0 0 17.273 28">
  <path id="Path_9447" data-name="Path 9447" d="M185.906,23.786c-2.96-3.8-8.636-9.995-8.636-14.905a8.64,8.64,0,1,1,17.273,0C194.543,13.791,188.866,19.99,185.906,23.786Zm0-19.363a4.44,4.44,0,1,1-4.423,4.458,4.444,4.444,0,0,1,4.423-4.458Z" transform="translate(-177.27 0)" fill="#fff" fill-rule="evenodd"/>
  <path id="Path_9448" data-name="Path 9448" d="M197.817,397.02a5.879,5.879,0,0,1,.94.383c1.672.8,2.716,1.95,2.716,3.343,0,1.358-1.045,2.542-2.716,3.343a14.918,14.918,0,0,1-11.144,0c-1.672-.8-2.682-1.985-2.682-3.343,0-1.393,1.01-2.542,2.682-3.343a8.131,8.131,0,0,1,.975-.383c.418.557.871,1.149,1.323,1.672a7.609,7.609,0,0,0-1.428.522c-.975.453-1.567,1.01-1.567,1.532s.592,1.08,1.567,1.532a12.75,12.75,0,0,0,9.438,0c.94-.453,1.532-1.01,1.532-1.532s-.592-1.08-1.532-1.532a7.619,7.619,0,0,0-1.428-.522c.418-.523.871-1.114,1.323-1.672Z" transform="translate(-184.549 -377.169)" fill="#fff"/>
</svg>
