<svg xmlns="http://www.w3.org/2000/svg" width="21.546" height="34.927" viewBox="0 0 21.546 34.927">
  <g id="location" transform="translate(-177.27)">
    <path id="Path_9447" data-name="Path 9447" d="M188.043,29.67C184.351,24.935,177.27,17.2,177.27,11.077a10.777,10.777,0,1,1,21.546,0C198.816,17.2,191.735,24.935,188.043,29.67Zm0-24.154a5.539,5.539,0,1,1-5.517,5.56,5.543,5.543,0,0,1,5.517-5.56Z" transform="translate(0 0)" fill="#333" fill-rule="evenodd"/>
    <path id="Path_9448" data-name="Path 9448" d="M201,397.02a7.337,7.337,0,0,1,1.173.478c2.085,1,3.388,2.433,3.388,4.17,0,1.694-1.3,3.171-3.388,4.17a18.608,18.608,0,0,1-13.9,0c-2.085-1-3.345-2.476-3.345-4.17,0-1.738,1.26-3.171,3.345-4.17a10.151,10.151,0,0,1,1.216-.478c.521.7,1.086,1.434,1.651,2.085a9.492,9.492,0,0,0-1.781.652c-1.216.565-1.955,1.26-1.955,1.911s.738,1.347,1.955,1.912a15.9,15.9,0,0,0,11.773,0c1.173-.565,1.912-1.26,1.912-1.912s-.738-1.347-1.912-1.911a9.506,9.506,0,0,0-1.781-.652c.521-.652,1.086-1.39,1.651-2.085Z" transform="translate(-7.184 -372.258)" fill="#333"/>
  </g>
</svg>
