<svg xmlns="http://www.w3.org/2000/svg" width="15.505" height="15.67" viewBox="0 0 15.505 15.67">
  <path id="search_icon" d="M21.392,22.42,17.733,18.6a6.133,6.133,0,0,1-1.924,1.121,6.574,6.574,0,0,1-2.284.4,6.663,6.663,0,0,1-6.726-6.7A6.429,6.429,0,0,1,8.751,8.7,6.461,6.461,0,0,1,13.5,6.75,6.461,6.461,0,0,1,18.245,8.7,6.429,6.429,0,0,1,20.2,13.421a6.612,6.612,0,0,1-.4,2.27,6.5,6.5,0,0,1-1.149,1.993l3.659,3.823Zm-7.866-3.546a5.18,5.18,0,0,0,3.82-1.592,5.281,5.281,0,0,0,1.578-3.861A5.387,5.387,0,0,0,13.526,8a5.388,5.388,0,0,0-5.453,5.425,5.411,5.411,0,0,0,5.453,5.453Z" transform="translate(-6.8 -6.75)" fill="#737376"/>
</svg>
