<svg xmlns="http://www.w3.org/2000/svg" width="32" height="32" viewBox="0 0 32 32">
  <g id="twitter" transform="translate(-0.284)">
    <circle id="Ellipse_6" data-name="Ellipse 6" cx="16" cy="16" r="16" transform="translate(0.284)" fill="#333"/>
    <path id="Path_9446" data-name="Path 9446" d="M26.1,9.9a8.305,8.305,0,0,1-2.37.639A4.066,4.066,0,0,0,25.549,8.3a8.351,8.351,0,0,1-2.62.983A4.152,4.152,0,0,0,19.92,8,4.089,4.089,0,0,0,15.8,12.061a4.171,4.171,0,0,0,.1.927A11.792,11.792,0,0,1,7.4,8.747a3.986,3.986,0,0,0-.562,2.04,4.051,4.051,0,0,0,1.836,3.378,4.172,4.172,0,0,1-1.866-.509c0,.017,0,.033,0,.051a4.08,4.08,0,0,0,3.308,3.981,4.28,4.28,0,0,1-1.087.142,4.191,4.191,0,0,1-.774-.071,4.124,4.124,0,0,0,3.851,2.819,8.361,8.361,0,0,1-5.122,1.738A8.155,8.155,0,0,1,6,22.257a11.815,11.815,0,0,0,6.324,1.822A11.556,11.556,0,0,0,24.06,12.532c0-.174-.006-.353-.014-.523A8.413,8.413,0,0,0,26.1,9.9Z" transform="translate(0.066 0.036)" fill="#fff"/>
  </g>
</svg>
