<svg xmlns="http://www.w3.org/2000/svg" width="32.333" height="31.86" viewBox="0 0 32.333 31.86">
  <g id="website_icon" transform="translate(-93.332 -27.09)">
    <path id="Path_9458" data-name="Path 9458" d="M393.76,389.472a32.334,32.334,0,0,0,3.579-9.642H405.9a16.167,16.167,0,0,1-12.137,9.642Z" transform="translate(-281.505 -330.522)" fill="#333"/>
    <path id="Path_9459" data-name="Path 9459" d="M278.63,388.081a1.9,1.9,0,0,0,3.343,0,30.718,30.718,0,0,0,3.014-8.261h-9.371a30.721,30.721,0,0,0,3.014,8.261Z" transform="translate(-170.803 -330.513)" fill="#333"/>
    <path id="Path_9460" data-name="Path 9460" d="M125.692,389.474a16.167,16.167,0,0,1-12.137-9.642h8.558a32.334,32.334,0,0,0,3.579,9.642Z" transform="translate(-18.95 -330.524)" fill="#333"/>
    <path id="Path_9461" data-name="Path 9461" d="M455,205.84a32.334,32.334,0,0,1,0,9.342h8.864a16.164,16.164,0,0,0,0-9.342Z" transform="translate(-338.888 -167.491)" fill="#333"/>
    <path id="Path_9462" data-name="Path 9462" d="M275.593,215.182a30.718,30.718,0,0,0,0-9.342h-9.958a30.718,30.718,0,0,0,0,9.342Z" transform="translate(-161.116 -167.491)" fill="#333"/>
    <path id="Path_9463" data-name="Path 9463" d="M102.885,215.182a32.335,32.335,0,0,1,0-9.342H94.021a16.165,16.165,0,0,0,0,9.342Z" transform="translate(0 -167.491)" fill="#333"/>
    <path id="Path_9464" data-name="Path 9464" d="M393.76,27.09a32.331,32.331,0,0,1,3.579,9.642H405.9a16.167,16.167,0,0,0-12.137-9.642Z" transform="translate(-281.505 0)" fill="#333"/>
    <path id="Path_9465" data-name="Path 9465" d="M278.626,34.155a30.725,30.725,0,0,0-3.014,8.261h9.371a30.722,30.722,0,0,0-3.014-8.261,1.9,1.9,0,0,0-3.343,0Z" transform="translate(-170.799 -5.684)" fill="#333"/>
    <path id="Path_9466" data-name="Path 9466" d="M113.55,36.732h8.558a32.331,32.331,0,0,1,3.579-9.642,16.167,16.167,0,0,0-12.137,9.642Z" transform="translate(-18.945)" fill="#333"/>
  </g>
</svg>
