<svg xmlns="http://www.w3.org/2000/svg" width="58" height="58" viewBox="0 0 58 58">
  <path id="linkedin" d="M49.276,46.666V35.344c0-6.066-3.238-8.889-7.555-8.889a6.514,6.514,0,0,0-5.915,3.262v-2.8H29.242c.087,1.853,0,19.746,0,19.746h6.564V35.638a4.476,4.476,0,0,1,.217-1.6,3.59,3.59,0,0,1,3.366-2.4c2.376,0,3.325,1.811,3.325,4.464V46.667h6.563ZM22.327,24.225a3.423,3.423,0,1,0,.043-6.824,3.421,3.421,0,1,0-.085,6.824ZM33,62A29,29,0,1,1,62,33,29,29,0,0,1,33,62ZM25.609,46.666V26.92H19.046V46.666Z" transform="translate(-4 -4)" fill="#007ab9" fill-rule="evenodd"/>
</svg>
