<svg xmlns="http://www.w3.org/2000/svg" width="56.817" height="56.817" viewBox="0 0 56.817 56.817">
  <g id="ticket_icon" transform="translate(-156.092 -198.184)">
    <path id="Path_9467" data-name="Path 9467" d="M305.166,227.9a1.057,1.057,0,0,1,.442,1.026,1.042,1.042,0,0,1-.3.584,1.308,1.308,0,0,1-.426.268l-3.156.963-.963,3.156a1.089,1.089,0,0,1-.852.726,1.056,1.056,0,0,1-1.026-.442l-1.909-2.7h-3.314a1.058,1.058,0,0,1-.947-.568,1.1,1.1,0,0,1,.095-1.12l1.989-2.651-1.073-3.156h0a1.1,1.1,0,0,1,1.342-1.341l3.156,1.073,2.651-1.989h0a1.1,1.1,0,0,1,1.121-.095,1.056,1.056,0,0,1,.568.947v3.314Z" transform="translate(-113.928 -0.863)" fill="#333"/>
    <path id="Path_9468" data-name="Path 9468" d="M98.406,0a28.409,28.409,0,1,0,20.088,8.321A28.407,28.407,0,0,0,98.406,0ZM93.94,49.24a1.042,1.042,0,0,1-1.483,0L87.9,44.679h0a4.1,4.1,0,0,0,.837-.647,3.981,3.981,0,0,0,.647-.837,4.2,4.2,0,0,0-5.76-5.76,3.981,3.981,0,0,0-.837.647,4.1,4.1,0,0,0-.647.837l-4.561-4.561a1.042,1.042,0,0,1,0-1.483L102.826,7.623h0a1.042,1.042,0,0,1,1.484,0l4.561,4.561h0a4.1,4.1,0,0,0-.836.647,3.981,3.981,0,0,0-.647.837,4.2,4.2,0,0,0,5.76,5.76,3.981,3.981,0,0,0,.837-.647,4.1,4.1,0,0,0,.647-.836l4.561,4.561h0a1.042,1.042,0,0,1,0,1.484Z" transform="translate(86.094 198.184)" fill="#333"/>
  </g>
</svg>
