<svg id="twitter" xmlns="http://www.w3.org/2000/svg" width="58" height="58" viewBox="0 0 58 58">
  <circle id="Ellipse_6" data-name="Ellipse 6" cx="29" cy="29" r="29" fill="#55acee"/>
  <path id="Path_9446" data-name="Path 9446" d="M42.273,11.433A14.985,14.985,0,0,1,38,12.586,7.336,7.336,0,0,0,41.272,8.54a15.068,15.068,0,0,1-4.727,1.774A7.492,7.492,0,0,0,31.115,8a7.378,7.378,0,0,0-7.44,7.321A7.526,7.526,0,0,0,23.863,17,21.276,21.276,0,0,1,8.528,9.345a7.191,7.191,0,0,0-1.013,3.681,7.31,7.31,0,0,0,3.313,6.1A7.528,7.528,0,0,1,7.46,18.2c0,.031,0,.06,0,.092a7.361,7.361,0,0,0,5.969,7.183,7.723,7.723,0,0,1-1.961.256,7.562,7.562,0,0,1-1.4-.129,7.442,7.442,0,0,0,6.949,5.086,15.086,15.086,0,0,1-9.242,3.136A14.715,14.715,0,0,1,6,33.722a21.317,21.317,0,0,0,11.41,3.288A20.851,20.851,0,0,0,38.584,16.175c0-.314-.011-.636-.025-.944A15.179,15.179,0,0,0,42.273,11.433Z" transform="translate(4.876 6.503)" fill="#fff"/>
</svg>
