<svg xmlns="http://www.w3.org/2000/svg" width="26.3" height="26.3" viewBox="0 0 26.3 26.3">
  <g id="file_upload" transform="translate(-170.651 -100.65)">
    <path id="Path_193" data-name="Path 193" d="M195.616,179.372a1.625,1.625,0,1,1-2.22.595,1.625,1.625,0,0,1,2.22-.595" transform="translate(-20.753 -72.67)" stroke="#fff" stroke-width="0.3"/>
    <path id="Path_194" data-name="Path 194" d="M252.947,124.558a1.631,1.631,0,1,1-2.226-.6,1.631,1.631,0,0,1,2.226.6" transform="translate(-73.363 -21.275)" stroke="#fff" stroke-width="0.3"/>
    <path id="Path_195" data-name="Path 195" d="M183.8,100.8h-1.625v3.25H183.8a9.75,9.75,0,1,1-9.75,9.75v-1.625H170.8V113.8a13,13,0,1,0,13-13Z" transform="translate(0 0)" stroke="#fff" stroke-width="0.3"/>
    <path id="Path_196" data-name="Path 196" d="M289.3,212.978v-6.5h3.25l-4.875-4.875-4.875,4.875h3.25v6.5Z" transform="translate(-103.877 -93.49)" stroke="#fff" stroke-width="0.3"/>
  </g>
</svg>
