<svg id="whatsapp" xmlns="http://www.w3.org/2000/svg" width="58" height="58" viewBox="0 0 58 58">
  <path id="Path_9447" data-name="Path 9447" d="M29,58h0A29,29,0,0,1,0,29H0A29,29,0,0,1,29,0h0A29,29,0,0,1,58,29h0A29,29,0,0,1,29,58Z" fill="#25d366"/>
  <g id="Group_553" data-name="Group 553" transform="translate(9.866 9.906)">
    <g id="WA_Logo">
      <g id="Group_552" data-name="Group 552">
        <path id="Path_9448" data-name="Path 9448" d="M202.8,176.391a19.063,19.063,0,0,0-30,23l-2.7,9.877,10.1-2.651a19.009,19.009,0,0,0,9.106,2.32h.006A19.071,19.071,0,0,0,202.8,176.391Zm-13.479,29.325h-.006a15.793,15.793,0,0,1-8.062-2.21l-.58-.342-6,1.572,1.6-5.846-.377-.6a15.841,15.841,0,1,1,13.421,7.424Zm8.688-11.867c-.476-.238-2.819-1.392-3.254-1.549s-.754-.238-1.073.238-1.23,1.549-1.508,1.868-.557.36-1.032.122a12.954,12.954,0,0,1-3.828-2.366,14.461,14.461,0,0,1-2.651-3.3c-.278-.476-.029-.737.209-.974.215-.215.476-.557.713-.835a3.175,3.175,0,0,0,.476-.795.877.877,0,0,0-.041-.835c-.122-.238-1.073-2.581-1.467-3.538-.389-.928-.777-.8-1.073-.818-.278-.012-.6-.017-.911-.017a1.752,1.752,0,0,0-1.27.6,5.347,5.347,0,0,0-1.665,3.973,9.243,9.243,0,0,0,1.943,4.924c.238.319,3.358,5.127,8.137,7.192a27.213,27.213,0,0,0,2.714,1,6.5,6.5,0,0,0,3,.191c.916-.139,2.819-1.154,3.213-2.262a4.029,4.029,0,0,0,.278-2.262C198.8,194.209,198.485,194.093,198.01,193.849Z" transform="translate(-170.1 -170.8)" fill="#fff" fill-rule="evenodd"/>
      </g>
    </g>
  </g>
</svg>
