<svg xmlns="http://www.w3.org/2000/svg" width="121.481" height="36.609" viewBox="0 0 121.481 36.609">
  <g id="amazon" transform="translate(-26.022 -187.196)">
    <g id="形状_4_3_" transform="translate(26.022 187.196)">
      <g id="形状_4" transform="translate(0 0)">
        <g id="Group_732" data-name="Group 732">
          <path id="Path_9439" data-name="Path 9439" d="M109.728,203.188a13.7,13.7,0,0,0-7.048-1.514l6.4-9.139a3.867,3.867,0,0,0,.93-1.736v-2.365a.69.69,0,0,0-.713-.7l-12.359,0a.682.682,0,0,0-.7.7v2.758a.688.688,0,0,0,.714.694h6.457L96,202.53a3.325,3.325,0,0,0-.46,1.9v2.8c0,.405.449.868.88.639a14.233,14.233,0,0,1,13.058-.024c.466.243.909-.226.909-.63v-2.942A1.26,1.26,0,0,0,109.728,203.188ZM66.733,187.382a5.338,5.338,0,0,0-5.194,3.573c-1.053-2.436-2.527-3.573-4.879-3.573a4.96,4.96,0,0,0-4.948,3.573h-.07v-2.519a.709.709,0,0,0-.684-.648h-3.5a.71.71,0,0,0-.726.7l0,19.3a.708.708,0,0,0,.672.635h3.76a.709.709,0,0,0,.725-.694l0-10.228c0-2.234-.106-5.32,2.6-5.32,2.667,0,2.316,3.168,2.316,5.32l0,10.229a.706.706,0,0,0,.675.694h3.756a.71.71,0,0,0,.725-.694V197.494a11.658,11.658,0,0,1,.351-3.7,2.493,2.493,0,0,1,2.246-1.583,1.96,1.96,0,0,1,2.211,1.665,24.648,24.648,0,0,1,.105,3.614v10.229a.706.706,0,0,0,.675.694h3.755a.71.71,0,0,0,.725-.694l0-12.178c0-2.072.246-4.426-.948-6.05A5.333,5.333,0,0,0,66.733,187.382Zm53.918,0c-5.44,0-8.458,4.67-8.458,10.68,0,5.97,2.984,10.762,8.458,10.762,5.265,0,8.6-4.671,8.6-10.558C129.249,192.174,126.232,187.382,120.651,187.382Zm0,17.461c-2.947,0-2.913-5.035-2.913-7.391s.175-6.131,2.948-6.131a2.354,2.354,0,0,1,2.456,1.868,17.838,17.838,0,0,1,.562,5.117C123.7,200.783,123.565,204.844,120.651,204.844Zm25.868-15.186a4.929,4.929,0,0,0-4.388-2.275c-2.6,0-4.07,1.26-5.123,3.9h-.072V188.33a.713.713,0,0,0-.667-.541h-3.487a.713.713,0,0,0-.723.63l.006,19.3a.706.706,0,0,0,.675.694h3.746a.719.719,0,0,0,.732-.694V197.331a8.568,8.568,0,0,1,.6-3.655,2.459,2.459,0,0,1,2.175-1.543c2.6,0,2.352,3.086,2.352,5.2v10.478a.709.709,0,0,0,.67.607h3.769a.714.714,0,0,0,.721-.607V195.666C147.5,193.8,147.5,191.2,146.519,189.657ZM91.666,201.4v-5.858c0-2.482.176-4.762-1.653-6.471A8.531,8.531,0,0,0,84.35,187.2c-3.578,0-7.571,1.336-8.408,5.757a.662.662,0,0,0,.561.786l3.644.395a.8.8,0,0,0,.653-.691,2.864,2.864,0,0,1,3.022-2.258,2.513,2.513,0,0,1,2.111.977,4.818,4.818,0,0,1,.457,2.727v.488c-2.181.244-5.03.407-7.07,1.3a6.386,6.386,0,0,0-4.009,6.145c0,3.906,2.462,5.86,5.628,5.86,2.673,0,4.135-.63,6.2-2.733a9.172,9.172,0,0,0,2.155,2.506.779.779,0,0,0,.888-.088l.008.008c.751-.668,2.115-1.853,2.884-2.5a.709.709,0,0,0,.012-1A5.134,5.134,0,0,1,91.666,201.4Zm-5.979,1.793a3.052,3.052,0,0,1-2.6,1.709c-1.442,0-2.286-1.1-2.286-2.726,0-3.2,2.872-3.785,5.593-3.785v.815A7.378,7.378,0,0,1,85.687,203.19ZM42.377,201.4v-5.858c0-2.482.176-4.762-1.653-6.471a8.533,8.533,0,0,0-5.663-1.872c-3.578,0-7.571,1.336-8.408,5.757a.662.662,0,0,0,.561.786l3.644.395a.8.8,0,0,0,.653-.691,2.863,2.863,0,0,1,3.022-2.258,2.513,2.513,0,0,1,2.111.977,4.818,4.818,0,0,1,.457,2.727v.488c-2.181.244-5.03.407-7.07,1.3a6.386,6.386,0,0,0-4.009,6.145c0,3.906,2.462,5.86,5.628,5.86,2.673,0,4.135-.63,6.2-2.733A9.176,9.176,0,0,0,40,208.456a.778.778,0,0,0,.888-.088l.009.008c.75-.668,2.116-1.853,2.883-2.5a.709.709,0,0,0,.012-1A5.135,5.135,0,0,1,42.377,201.4ZM36.4,203.19a3.051,3.051,0,0,1-2.6,1.709c-1.442,0-2.286-1.1-2.286-2.726,0-3.2,2.873-3.785,5.592-3.785v.815A7.374,7.374,0,0,1,36.4,203.19Z" transform="translate(-26.022 -187.196)" fill="#080404" fill-rule="evenodd"/>
        </g>
      </g>
    </g>
    <g id="形状_4_2_" transform="translate(43.113 209.285)">
      <g id="形状_4_1_" transform="translate(0)">
        <g id="Group_733" data-name="Group 733">
          <path id="Path_9440" data-name="Path 9440" d="M147.981,275.722a63.465,63.465,0,0,1-24.335,4.979,64.175,64.175,0,0,1-31.9-8.464c-.794-.462-1.384.354-.723.95A47.236,47.236,0,0,0,122.9,285.35c8.811,0,19.044-2.771,26.1-7.979C150.175,276.509,149.175,275.216,147.981,275.722Zm6.975-4c-.769-.949-7.389-1.769-11.429,1.069-.621.437-.514,1.037.174.955,2.275-.271,7.341-.88,8.243.276s-1,5.92-1.855,8.048c-.258.643.3.9.878.416C154.754,279.313,155.732,272.678,154.956,271.718Z" transform="translate(-90.733 -270.831)" fill="#f2941b" fill-rule="evenodd"/>
        </g>
      </g>
    </g>
  </g>
</svg>
