<svg id="attendees" xmlns="http://www.w3.org/2000/svg" width="34" height="34" viewBox="0 0 34 34">
  <rect id="Rectangle_60" data-name="Rectangle 60" width="34" height="34" fill="#fff" opacity="0"/>
  <path id="supervisor_account_FILL0_wght400_GRAD0_opsz48" d="M28.16,24.95a3.762,3.762,0,0,1-2.66-6.42,3.762,3.762,0,0,1,5.32,5.32A3.624,3.624,0,0,1,28.16,24.95Zm-7.84,8.84V31.75a3.422,3.422,0,0,1,.44-1.78A2.933,2.933,0,0,1,22,28.83a13.235,13.235,0,0,1,3-1.12,13.667,13.667,0,0,1,3.16-.36,14.435,14.435,0,0,1,3.16.34,11.644,11.644,0,0,1,3,1.14,2.661,2.661,0,0,1,1.24,1.12,3.531,3.531,0,0,1,.44,1.8v2.04ZM16.8,20.95a5.755,5.755,0,0,1-6-6,5.755,5.755,0,0,1,6-6,5.755,5.755,0,0,1,6,6,5.755,5.755,0,0,1-6,6ZM4,33.79V30.03a4.79,4.79,0,0,1,.68-2.5,4.321,4.321,0,0,1,2.04-1.74,30.066,30.066,0,0,1,5.14-1.8,20.778,20.778,0,0,1,4.94-.6,19.319,19.319,0,0,1,2.28.12q1,.12,2.16.36L19.2,25.91a9.451,9.451,0,0,0-1.12-.1q-.6-.02-1.28-.02a21.258,21.258,0,0,0-4.44.46,20.316,20.316,0,0,0-4.68,1.7,2.238,2.238,0,0,0-.92.88,2.315,2.315,0,0,0-.36,1.2v1.36H17.92v2.4Zm13.92-2.4ZM16.8,18.55a3.489,3.489,0,0,0,3.6-3.6,3.489,3.489,0,0,0-3.6-3.6,3.489,3.489,0,0,0-3.6,3.6,3.489,3.489,0,0,0,3.6,3.6Zm0-3.6Z" transform="translate(-3 -3.95)" fill="#333"/>
</svg>
