<svg xmlns="http://www.w3.org/2000/svg" width="37.753" height="35.991" viewBox="0 0 37.753 35.991">
  <g id="contact_form" transform="translate(-120.988 -61.687)">
    <path id="Path_241" data-name="Path 241" d="M157.792,72.281,156.6,71.092a3.25,3.25,0,0,0-4.59,0l-2.838,2.837V66.375a4.693,4.693,0,0,0-4.688-4.688H133.762c-.022,0-.041.01-.063.012h0a1.063,1.063,0,0,0-.252.047c-.034.009-.068.019-.1.031a1.078,1.078,0,0,0-.306.187L121.348,72.436h0a1.084,1.084,0,0,0-.186.226c-.014.022-.026.044-.039.067h0a1.064,1.064,0,0,0-.092.226c0,.015-.011.029-.014.043a1.069,1.069,0,0,0-.029.243V92.99a4.694,4.694,0,0,0,4.688,4.688h18.811a4.694,4.694,0,0,0,4.688-4.688v-7.5l8.617-8.616a3.25,3.25,0,0,0,0-4.59Zm-2.719.341,1.188,1.189h0a1.084,1.084,0,0,1,0,1.53l-.745.746L152.8,73.368l.746-.746a1.084,1.084,0,0,1,1.53,0Zm-12.39,16.3-3.646.923.927-3.641,11.3-11.3,2.719,2.719ZM131.135,66.575l1.546-1.385v4.445a2.527,2.527,0,0,1-2.524,2.524H124.9ZM147.012,92.99a2.527,2.527,0,0,1-2.524,2.524H125.677a2.527,2.527,0,0,1-2.524-2.524V74.324h7a4.694,4.694,0,0,0,4.688-4.688V63.851h9.643a2.527,2.527,0,0,1,2.524,2.524v9.719l-8.789,8.789a1.078,1.078,0,0,0-.284.5l-1.449,5.692a1.082,1.082,0,0,0,1.314,1.316l5.7-1.442h0a1.08,1.08,0,0,0,.5-.284l3.01-3.01Z" fill="#5046ba"/>
  </g>
</svg>
