<svg id="copy_icon" xmlns="http://www.w3.org/2000/svg" width="16" height="17.231" viewBox="0 0 16 17.231">
  <path id="Path_1" data-name="Path 1" d="M142.462,140h-1.231A1.231,1.231,0,0,0,140,141.231v11.077a1.231,1.231,0,0,0,1.231,1.231h9.846a1.231,1.231,0,0,0,1.231-1.231v-1.231h-9.846Z" transform="translate(-140 -136.308)" fill="#333"/>
  <path id="Path_2" data-name="Path 2" d="M455,35v4.923h4.923Z" transform="translate(-443.923 -35)" fill="#333"/>
  <path id="Path_3" data-name="Path 3" d="M251.154,41.154V35h-4.923A1.231,1.231,0,0,0,245,36.231V48.538h11.077a1.231,1.231,0,0,0,1.231-1.231V41.154Z" transform="translate(-241.308 -35)" fill="#333"/>
</svg>
