<svg xmlns="http://www.w3.org/2000/svg" width="34" height="34" viewBox="0 0 34 34">
  <g id="coupon_sel" transform="translate(6.037 1.011)">
    <rect id="Rectangle_64" data-name="Rectangle 64" width="34" height="34" transform="translate(-6.037 -1.011)" fill="#fff" opacity="0"/>
    <g id="coupon_fill" transform="translate(-158.908 -34.7)">
      <path id="Path_9447" data-name="Path 9447" d="M182.9,34.99H160.19a2.839,2.839,0,0,0-1.875.635,2.2,2.2,0,0,0-.82,1.615V63.118a1.013,1.013,0,0,0,.1.427,1.121,1.121,0,0,0,.268.371l2.554,2.25a1.4,1.4,0,0,0,1.814,0l1.647-1.463,1.647,1.463a1.4,1.4,0,0,0,1.814,0l1.647-1.463,1.647,1.463a1.4,1.4,0,0,0,1.814,0L174.1,64.7l1.647,1.463a1.4,1.4,0,0,0,1.814,0l1.647-1.463,1.647,1.463a1.4,1.4,0,0,0,1.814,0l2.554-2.25a1.121,1.121,0,0,0,.268-.371,1.013,1.013,0,0,0,.1-.427V37.24a2.2,2.2,0,0,0-.82-1.615,2.84,2.84,0,0,0-1.875-.635ZM160.19,37.24h22.848V56.367H160.049V37.24a.244.244,0,0,1,.141,0Zm21.57,26.542-1.647-1.463a1.4,1.4,0,0,0-1.814,0l-1.647,1.463L175,62.319a1.4,1.4,0,0,0-1.814,0l-1.647,1.463L169.9,62.319a1.4,1.4,0,0,0-1.814,0l-1.647,1.463-1.647-1.463a1.4,1.4,0,0,0-1.814,0l-1.647,1.463-1.277-1.125V58.618h22.988v4.039Z" transform="translate(-1.672)" fill="#5046ba"/>
      <path id="Path_9448" data-name="Path 9448" d="M230.875,111.751a3.375,3.375,0,1,0-2.387-.989A3.376,3.376,0,0,0,230.875,111.751Zm0-4.5a1.125,1.125,0,1,1-.8.33A1.125,1.125,0,0,1,230.875,107.25Z" transform="translate(-65.504 -65.51)" fill="#5046ba"/>
      <path id="Path_9449" data-name="Path 9449" d="M253.977,134.487a1.125,1.125,0,0,0,1.6,0L265.7,124.361a1.13,1.13,0,0,0-1.6-1.6l-10.126,10.126a1.125,1.125,0,0,0,0,1.6Z" transform="translate(-89.967 -81.821)" fill="#5046ba"/>
      <path id="Path_9450" data-name="Path 9450" d="M367.5,230.875a3.375,3.375,0,1,0,.989-2.387A3.376,3.376,0,0,0,367.5,230.875Zm4.5,0a1.125,1.125,0,1,1-.329-.8A1.125,1.125,0,0,1,372,230.875Z" transform="translate(-196.503 -180.134)" fill="#5046ba"/>
      <circle id="Ellipse_31" data-name="Ellipse 31" cx="2" cy="2" r="2" transform="translate(163.872 40.688)" fill="#5046ba"/>
      <circle id="Ellipse_32" data-name="Ellipse 32" cx="2" cy="2" r="2" transform="translate(172.872 48.688)" fill="#5046ba"/>
      <rect id="Rectangle_3981" data-name="Rectangle 3981" width="24" height="7" transform="translate(157.872 57.688)" fill="#5046ba"/>
    </g>
  </g>
</svg>
