<svg xmlns="http://www.w3.org/2000/svg" width="25.784" height="24.307" viewBox="0 0 25.784 24.307">
  <g id="date_field" transform="translate(-118.327 -61.601)">
    <path id="Path_197" data-name="Path 197" d="M140.683,64.125h-2.434V62.536a.935.935,0,0,0-1.87,0v1.589H126.292V62.536a.935.935,0,0,0-1.87,0v1.589h-2.667a3.428,3.428,0,0,0-3.428,3.428V82.48a3.428,3.428,0,0,0,3.428,3.428h18.928a3.428,3.428,0,0,0,3.428-3.428V67.553a3.428,3.428,0,0,0-3.428-3.428Zm-15.75,15.806a2.524,2.524,0,1,1,1.782-.739A2.521,2.521,0,0,1,124.933,79.931Zm6.342,0a2.524,2.524,0,1,1,1.782-.739A2.521,2.521,0,0,1,131.275,79.931Zm6.342,0a2.525,2.525,0,1,1,1.781-.738,2.521,2.521,0,0,1-1.781.738Zm4.624-9.916H120.2V67.553a1.558,1.558,0,0,1,1.558-1.558h2.668V67.21a.935.935,0,0,0,1.87,0V65.995H136.38V67.21a.935.935,0,1,0,1.87,0V65.995h2.434a1.558,1.558,0,0,1,1.558,1.558Z" fill="#333"/>
  </g>
</svg>
