<svg xmlns="http://www.w3.org/2000/svg" width="16.928" height="16.928" viewBox="0 0 16.928 16.928">
  <g id="deactivate_icon" transform="translate(-85.603 -15.609)">
    <path id="Path_242" data-name="Path 242" d="M100.052,18.088a8.464,8.464,0,1,0,0,11.97,8.464,8.464,0,0,0,0-11.97Zm-3.767,6,3.636-3.636a6.889,6.889,0,0,1-.015,7.257Zm1.445-5.844-3.645,3.645-3.659-3.659a6.889,6.889,0,0,1,7.3.015Zm-9.5,2.185,3.659,3.659-3.644,3.644a6.889,6.889,0,0,1-.015-7.3Zm2.223,9.494,3.635-3.635,3.621,3.621a6.889,6.889,0,0,1-7.256.014Z" fill="#737376"/>
  </g>
</svg>
