<svg xmlns="http://www.w3.org/2000/svg" width="18.139" height="18.139" viewBox="0 0 18.139 18.139">
  <g id="download_icon" transform="translate(-230.138 -447.998)">
    <path id="Path_244" data-name="Path 244" d="M229.459,147.276h-2.177v11.762l3.055-3.055a.945.945,0,1,1,1.337,1.337l-4.659,4.7a1.017,1.017,0,0,1-1.374,0l-4.659-4.7a.945.945,0,1,1,1.337-1.337l3.055,3.055V147.276H223.2a5.949,5.949,0,0,0-5.919,5.919v6.3a5.949,5.949,0,0,0,5.919,5.919h6.3a5.949,5.949,0,0,0,5.919-5.919v-6.3a5.957,5.957,0,0,0-5.957-5.919Z" transform="translate(12.861 300.722)" fill="#737376"/>
  </g>
</svg>
