<svg xmlns="http://www.w3.org/2000/svg" width="14.186" height="22.698" viewBox="0 0 14.186 22.698">
  <path id="drag_icon" d="M9.837,21.023A2.837,2.837,0,1,1,7,23.861,2.836,2.836,0,0,1,9.837,21.023Zm8.512,0a2.837,2.837,0,1,1-2.837,2.837A2.836,2.836,0,0,1,18.349,21.023ZM9.837,12.512A2.837,2.837,0,1,1,7,15.349,2.836,2.836,0,0,1,9.837,12.512Zm8.512,0a2.837,2.837,0,1,1-2.837,2.837A2.836,2.836,0,0,1,18.349,12.512ZM9.837,4A2.837,2.837,0,1,1,7,6.837,2.836,2.836,0,0,1,9.837,4Zm8.512,0a2.837,2.837,0,1,1-2.837,2.837A2.836,2.836,0,0,1,18.349,4Z" transform="translate(-7 -4)" fill="#737376" fill-rule="evenodd"/>
</svg>
