<svg xmlns="http://www.w3.org/2000/svg" width="22.698" height="14.186" viewBox="0 0 22.698 14.186">
  <g id="Drag_icon" transform="translate(15.698 -7) rotate(90)">
    <path id="Path_165" data-name="Path 165" d="M9.837,21.023A2.837,2.837,0,1,1,7,23.861,2.836,2.836,0,0,1,9.837,21.023Zm8.512,0a2.837,2.837,0,1,1-2.837,2.837A2.836,2.836,0,0,1,18.349,21.023ZM9.837,12.512A2.837,2.837,0,1,1,7,15.349,2.836,2.836,0,0,1,9.837,12.512Zm8.512,0a2.837,2.837,0,1,1-2.837,2.837A2.836,2.836,0,0,1,18.349,12.512ZM9.837,4A2.837,2.837,0,1,1,7,6.837,2.836,2.836,0,0,1,9.837,4Zm8.512,0a2.837,2.837,0,1,1-2.837,2.837A2.836,2.836,0,0,1,18.349,4Z" transform="translate(0 -11)" fill="#b9b9b9" fill-rule="evenodd"/>
  </g>
</svg>
