<svg xmlns="http://www.w3.org/2000/svg" width="16.04" height="16.033" viewBox="0 0 16.04 16.033">
  <path id="edit_icon" d="M207.044,128.429s-7.134,7.057-9.085,8.973c-.615.778-3.56.995-4.515,1.273h0a.573.573,0,0,1-.662-.673c.26-.863.488-3.788,1.217-4.414,2.017-2.17,10.262-10.441,10.262-10.441a1.722,1.722,0,0,1,2.419,0c2.362,2.271,3.138,2.83.365,5.282Zm.445-2.864-1.62-1.609c-.579-.6-1.237.526-1.632.833l2.419,2.419c.308-.4,1.415-1.05.833-1.643Z" transform="translate(-192.771 -122.65)" fill="#737376"/>
</svg>
