<svg xmlns="http://www.w3.org/2000/svg" width="34" height="34" viewBox="0 0 34 34">
  <g id="email_builder" transform="translate(4 3.958)">
    <rect id="Rectangle_63" data-name="Rectangle 63" width="34" height="34" transform="translate(-4 -3.958)" fill="#fff" opacity="0"/>
    <path id="drafts_FILL0_wght400_GRAD0_opsz48" d="M19,2l13.912,8.325a1.754,1.754,0,0,1,.863.919A3.154,3.154,0,0,1,34,12.388V29.75A2.307,2.307,0,0,1,31.75,32H6.25a2.159,2.159,0,0,1-1.575-.675A2.159,2.159,0,0,1,4,29.75V12.388a2.943,2.943,0,0,1,.244-1.144,1.873,1.873,0,0,1,.844-.919Zm0,17.475,12.6-7.387L19,4.512,6.4,12.087Zm0,2.513-12.75-7.5V29.75h25.5V14.487Zm0,7.763h0Z" transform="translate(-6 -3.958)" fill="#333"/>
  </g>
</svg>
