<svg xmlns="http://www.w3.org/2000/svg" width="34" height="34" viewBox="0 0 34 34">
  <g id="enquiries_fill" transform="translate(2.037 1.011)">
    <rect id="Rectangle_64" data-name="Rectangle 64" width="34" height="34" transform="translate(-2.037 -1.011)" fill="#fff" opacity="0"/>
    <path id="forum_FILL1_wght400_GRAD0_opsz48" d="M4,25.026V5.472a1.457,1.457,0,0,1,.456-.981A1.3,1.3,0,0,1,5.4,4H23.589a1.351,1.351,0,0,1,.981.473,1.43,1.43,0,0,1,.456,1V17.947a1.457,1.457,0,0,1-.456.981,1.333,1.333,0,0,1-.981.491H9.607Zm7.044,1.4a1.358,1.358,0,0,1-.964-.491,1.434,1.434,0,0,1-.473-.981V21.522H27.129V9.607h3.5a1.3,1.3,0,0,1,.946.491,1.489,1.489,0,0,1,.456,1.016V32l-5.572-5.572Z" transform="translate(-3.037 -2.011)" fill="#5046ba"/>
  </g>
</svg>
