<svg xmlns="http://www.w3.org/2000/svg" width="161.704" height="33.018" viewBox="0 0 161.704 33.018">
  <g id="facebook" transform="translate(0 -161.369)">
    <path id="Path_9430" data-name="Path 9430" d="M16.68,37.986l-1.5-.039V38C15.68,38,16.18,38,16.68,37.986Z" transform="translate(9.446 148.163)" fill="none"/>
    <path id="Path_9431" data-name="Path 9431" d="M45.174,36.667a14.566,14.566,0,0,0-9.563-.295,6.868,6.868,0,0,0-5.166,5.807c-.256,1.564-.244,3.179-.333,4.513.09,1.744.051,3.23.256,4.692a7.1,7.1,0,0,0,5.128,6.153,15.436,15.436,0,0,0,7.717.346,8.166,8.166,0,0,0,4.167-2.025,7.522,7.522,0,0,0,2.282-5.218c.115-1.974.09-3.961.064-5.948a14.8,14.8,0,0,0-.256-2.718A6.8,6.8,0,0,0,45.174,36.667ZM43.136,50.178a2.464,2.464,0,0,1-2.192,2.474,4.622,4.622,0,0,1-2.5-.167,2.106,2.106,0,0,1-1.577-1.833c-.1-2.333-.141-4.692-.039-7.025a2.436,2.436,0,0,1,2.423-2.372,4.261,4.261,0,0,1,2.487.333,2.659,2.659,0,0,1,1.449,2.551C43.212,45.076,43.212,49.1,43.136,50.178Z" transform="translate(89.699 136.125)" fill="#4867aa"/>
    <path id="Path_9432" data-name="Path 9432" d="M41.07,36.426a15.163,15.163,0,0,0-8.282-.269,7.161,7.161,0,0,0-5.936,6.436c-.192,1.435-.051,2.884-.14,4.41.09,1.436-.052,2.974.166,4.461a7.049,7.049,0,0,0,4.243,5.756,13.239,13.239,0,0,0,5.256.974,13.582,13.582,0,0,0,4.474-.615,7.109,7.109,0,0,0,4-2.9,8.692,8.692,0,0,0,1.334-4.487,42.082,42.082,0,0,0-.128-7.73A7.022,7.022,0,0,0,41.07,36.426ZM39.6,50.168a2.439,2.439,0,0,1-2.218,2.474,6.458,6.458,0,0,1-1.923-.013,2.517,2.517,0,0,1-2.205-2.615c-.026-2.038-.026-4.064,0-6.1a2.658,2.658,0,0,1,2.628-2.679,4.422,4.422,0,0,1,2.295.308A2.433,2.433,0,0,1,39.6,43.669a1.552,1.552,0,0,1,.013.244S39.634,49.117,39.6,50.168Z" transform="translate(71.433 136.135)" fill="#4867aa"/>
    <path id="Path_9433" data-name="Path 9433" d="M52.367,64.1c-1.705-2.833-3.384-5.653-5.1-8.474a1.02,1.02,0,0,1,.013-1.256c1.859-2.9,3.7-5.82,5.538-8.73.269-.41.513-.821.769-1.256-.128-.038-.167-.077-.218-.077-2.115,0-4.231.013-6.346,0a.776.776,0,0,0-.731.41c-1.051,1.679-2.128,3.346-3.179,5.025-.782,1.218-1.551,2.449-2.333,3.667a6.184,6.184,0,0,1-.474.539l-.192-.077v-19.7a1.829,1.829,0,0,1-.308.026c-1.833.32-3.666.628-5.512.936-.744.115-.756.1-.756.859v25.5c0,1.334,0,2.667.013,4,0,.756,0,.769.731.769h5.153c.692,0,.692,0,.692-.692,0-2.961-.013-5.936-.013-8.9,0-.167.051-.333.064-.513a.634.634,0,0,0,.167-.051c.192.269.41.526.577.808q2.673,4.422,5.32,8.858a.931.931,0,0,0,.884.5c1.923-.026,3.859-.013,5.794-.013.192,0,.372-.039.679-.064C53.149,65.432,52.764,64.765,52.367,64.1Z" transform="translate(108.107 127.832)" fill="#4867aa"/>
    <path id="Path_9434" data-name="Path 9434" d="M39.311,44.653a14.871,14.871,0,0,0-8.564-.051c-.884.231-.923.231-.923-.654q.019-4.577.051-9.153v-.6c-.167-.013-.218-.026-.256-.026-1.974.333-3.948.667-5.91.987-.308.038-.436.179-.423.487.026.59.026,1.167.026,1.756V64.831c0,.154.012.295,0,.449-.013.282.09.41.384.449,2.218.244,4.41.6,6.628.744a20.681,20.681,0,0,0,7.409-.654,7.024,7.024,0,0,0,3.448-2.167,7.851,7.851,0,0,0,1.628-4.936c.077-2.09.1-4.192.064-6.294a25.563,25.563,0,0,0-.346-3.961A4.637,4.637,0,0,0,39.311,44.653ZM36.235,58.229c-.064,1.808-1.077,2.679-2.974,2.82-.923.064-1.859,0-2.795.013-.436.013-.577-.167-.577-.59.013-1.577,0-3.154,0-4.743s.013-3.154,0-4.743a.736.736,0,0,1,.526-.782,7.79,7.79,0,0,1,3.23-.692,2.41,2.41,0,0,1,2.6,2.526C36.273,54.1,36.3,56.178,36.235,58.229Z" transform="translate(53.014 127.843)" fill="#4867aa"/>
    <path id="Path_9435" data-name="Path 9435" d="M33.629,52.062c-.923.154-1.8.308-2.679.436a18.236,18.236,0,0,1-5.218.141,2.2,2.2,0,0,1-2.154-2.166c-.1-2.244-.141-4.5-.051-6.743.064-1.59.807-2.244,2.372-2.462a16.34,16.34,0,0,1,4.474.064c1.077.141,2.141.32,3.231.487.038-.09.064-.116.064-.154.013-1.59.026-3.192,0-4.794,0-.128-.231-.346-.384-.385-.654-.167-1.308-.282-1.962-.384a21.04,21.04,0,0,0-7.653-.064,7.994,7.994,0,0,0-5.32,3.41,9.084,9.084,0,0,0-1.4,4.871c-.039,1.628-.039,3.269,0,4.9a13.732,13.732,0,0,0,.308,2.615,7.368,7.368,0,0,0,4,5.243,11.375,11.375,0,0,0,4.525,1.116,27.14,27.14,0,0,0,7.538-.718c.308-.064.384-.231.384-.526-.012-1.512-.012-3.025-.012-4.551A1.878,1.878,0,0,0,33.629,52.062Z" transform="translate(18.803 136.151)" fill="#4867aa"/>
    <path id="Path_9436" data-name="Path 9436" d="M26.406,44.925a2.493,2.493,0,0,0-.359-.039c-1.385,0-2.769-.025-4.154,0-.462.013-.615-.166-.6-.615.026-.962,0-1.936.026-2.9a1.606,1.606,0,0,1,1.705-1.743c.974-.051,1.961-.064,2.935-.077.321,0,.449-.115.449-.436q-.019-2.327,0-4.653c0-.256-.077-.41-.372-.4-2.09.077-4.192.051-6.281.244a5.081,5.081,0,0,0-3.692,2.051,7.116,7.116,0,0,0-1.307,4.218c-.051,1.192-.013,2.4-.013,3.6,0,.641-.051.68-.679.68H11.8c-.32-.013-.487.077-.487.436.013,1.538.013,3.077,0,4.6,0,.321.128.449.449.449q1.077-.019,2.153,0c.821,0,.821,0,.821.821q0,7.5-.013,15c0,.487.141.628.616.628,1.743-.026,3.474-.013,5.2-.013.769,0,.769,0,.769-.756-.013-4.974-.013-9.961-.026-14.947,0-.756.013-.756.744-.756,1.077,0,2.167-.013,3.243.013.462.013.615-.167.641-.6.013-.513.1-1.026.154-1.539C26.175,47.117,26.291,46.053,26.406,44.925Z" transform="translate(-11.318 127.302)" fill="#4867aa"/>
    <path id="Path_9437" data-name="Path 9437" d="M33.292,36.194a15.833,15.833,0,0,0-7.666-.026,7.049,7.049,0,0,0-5.615,6.666c-.115,2.012-.1,4.038-.1,6.051a14.855,14.855,0,0,0,.192,2.384,7.551,7.551,0,0,0,3.82,5.666,10.3,10.3,0,0,0,4.436,1.218,33.57,33.57,0,0,0,9.538-.679.471.471,0,0,0,.449-.564c-.013-1.474,0-2.936,0-4.41a2.806,2.806,0,0,0-.039-.359c-1.654.192-3.282.449-4.91.526a38.049,38.049,0,0,1-4.833-.051,2.129,2.129,0,0,1-1.987-1.833,6.213,6.213,0,0,1-.141-1.09c-.026-.807.013-.833.833-.833,3.692,0,7.4-.013,11.089,0,.41,0,.564-.1.564-.526-.051-1.795.026-3.6-.1-5.4A6.966,6.966,0,0,0,33.292,36.194Zm-1.4,8.281c-.821.025-1.654.012-2.487.012s-1.667-.012-2.487,0c-.295,0-.461-.128-.436-.41a8.573,8.573,0,0,1,.231-1.91,2.359,2.359,0,0,1,2.295-1.525,4.8,4.8,0,0,1,1.051.026c2,.282,2.4,1.769,2.256,3.448A.578.578,0,0,1,31.895,44.475Z" transform="translate(34.856 136.136)" fill="#4867aa"/>
    <path id="Path_9438" data-name="Path 9438" d="M31.889,40.9a5.152,5.152,0,0,0-3.218-4.295,11.648,11.648,0,0,0-4.23-.82c-2.423-.051-4.858-.013-7.294-.026h-.654c-.192,1.846-.372,3.628-.551,5.487h.641c2.012,0,4.025-.026,6.051.013a6.678,6.678,0,0,1,1.654.282,1.507,1.507,0,0,1,1.154,1.41c.051.628.064,1.256.1,1.884.025.333-.1.462-.449.462-1.782.013-3.563.039-5.346.1a9.722,9.722,0,0,0-1.82.205,4.848,4.848,0,0,0-4.064,3.743,8.536,8.536,0,0,0-.128,3.371,5.857,5.857,0,0,0,2.628,4.32c1.833,1.141,3.833,1.013,5.833.718a11.81,11.81,0,0,0,3.7-1.244c.423-.218.551-.141.628.334.051.282.1.577.154.859H32.2v-.654c0-3.961.026-7.923-.012-11.9A31.381,31.381,0,0,0,31.889,40.9ZM25.53,51.954a.641.641,0,0,1-.269.474,6.454,6.454,0,0,1-3.077.859A1.88,1.88,0,0,1,20.326,50.8a1.2,1.2,0,0,1,1.09-.949c.7-.09,1.423-.1,2.128-.154l1.5.039c.333,0,.5.115.487.474C25.53,50.787,25.556,51.377,25.53,51.954Z" transform="translate(1.082 136.413)" fill="#4867aa"/>
  </g>
</svg>
