<svg xmlns="http://www.w3.org/2000/svg" width="60.013" height="53.986" viewBox="0 0 60.013 53.986">
  <path id="img_icon" d="M756.2,340.135H724.074a7.94,7.94,0,0,1-5.727-2.385A8.448,8.448,0,0,1,716,331.933V297.2a8.081,8.081,0,0,1,8.075-8.2h33.213a7.939,7.939,0,0,1,5.726,2.385,8.444,8.444,0,0,1,2.348,5.818v21.292a12.611,12.611,0,0,1,7.1,3.432,12.5,12.5,0,0,1,0,17.453,11.9,11.9,0,0,1-16.263.756Zm1.2-15.94a9.418,9.418,0,0,0-2.634,6.516,9.792,9.792,0,0,0,.172,1.861c.058.233.172.524.229.756a4.948,4.948,0,0,0,.286.989c.114.233.229.408.344.64a5.461,5.461,0,0,0,.572.989c.172.175.344.407.515.581.229.233.458.524.688.757a8.957,8.957,0,0,0,12.655-.116,9.38,9.38,0,0,0,2.634-6.458,9.066,9.066,0,0,0-9.048-9.192A8.882,8.882,0,0,0,757.4,324.2Zm-38.366.465v7.272a5.358,5.358,0,0,0,1.431,3.607,4.987,4.987,0,0,0,3.55,1.512v.059H753.45a10.677,10.677,0,0,1-.744-1.4v-.058c-.229-.582-.4-1.164-.572-1.745-.058-.233-.115-.408-.172-.64a12.98,12.98,0,0,1-.286-2.56,12.408,12.408,0,0,1,3.55-8.726,6.987,6.987,0,0,1,1.374-1.222c.115-.058.172-.116.286-.174.172-.117.287-.175.458-.292l.86-.523a5.325,5.325,0,0,1,.572-.292,1.719,1.719,0,0,1,.458-.232c.229-.059.458-.175.688-.233a5.187,5.187,0,0,1,.744-.232l.515-.175-8.36-8.552L740.05,323.09a1.574,1.574,0,0,1-2.175,0l-8.647-8.784Zm1.489-31.065a5.148,5.148,0,0,0-1.489,3.607V320.3l9.048-9.308a1.52,1.52,0,0,1,2.175,0l8.647,8.843,12.77-13.031a1.52,1.52,0,0,1,2.175,0l8.475,8.552V297.2a5.148,5.148,0,0,0-1.489-3.607,4.987,4.987,0,0,0-3.55-1.512H724.074A4.987,4.987,0,0,0,720.524,293.6Zm41.688,42.177v-3.549h-3.493a1.571,1.571,0,0,1,0-3.141h3.493v-3.549a1.546,1.546,0,1,1,3.092,0v3.549H768.8a1.571,1.571,0,0,1,0,3.141H765.3v3.549a1.546,1.546,0,1,1-3.092,0ZM734.5,306.51a4.121,4.121,0,1,1,4.12,4.189A4.156,4.156,0,0,1,734.5,306.51Z" transform="translate(-716 -289)" fill="#333"/>
</svg>
