<svg id="instagram" xmlns="http://www.w3.org/2000/svg" xmlns:xlink="http://www.w3.org/1999/xlink" width="58" height="58" viewBox="0 0 58 58">
  <defs>
    <radialGradient id="radial-gradient" cx="0.149" cy="1.003" r="1.278" gradientUnits="objectBoundingBox">
      <stop offset="0" stop-color="#ffb140"/>
      <stop offset="0.256" stop-color="#ff5445"/>
      <stop offset="0.599" stop-color="#fc2b82"/>
      <stop offset="1" stop-color="#8e40b7"/>
    </radialGradient>
  </defs>
  <g id="Instagram_1_">
    <rect id="Rectangle_3945" data-name="Rectangle 3945" width="58" height="58" fill="none"/>
    <path id="Instagram-2" data-name="Instagram" d="M47.96,13.52a3.48,3.48,0,1,1-3.48-3.48A3.48,3.48,0,0,1,47.96,13.52ZM29,38.667A9.667,9.667,0,1,1,38.667,29,9.666,9.666,0,0,1,29,38.667Zm0-24.558A14.892,14.892,0,1,0,43.892,29,14.892,14.892,0,0,0,29,14.108Zm0-8.883c7.743,0,8.661.029,11.718.169a16.042,16.042,0,0,1,5.385,1,8.986,8.986,0,0,1,3.335,2.17,8.979,8.979,0,0,1,2.17,3.335,16.054,16.054,0,0,1,1,5.385c.14,3.058.169,3.975.169,11.719s-.029,8.661-.169,11.718a16.042,16.042,0,0,1-1,5.385,9.606,9.606,0,0,1-5.5,5.5,16.053,16.053,0,0,1-5.385,1c-3.058.14-3.975.169-11.718.169s-8.661-.029-11.719-.169a16.042,16.042,0,0,1-5.385-1,8.986,8.986,0,0,1-3.335-2.17A8.985,8.985,0,0,1,6.392,46.1a16.054,16.054,0,0,1-1-5.385c-.14-3.058-.169-3.975-.169-11.718s.029-8.661.169-11.719a16.042,16.042,0,0,1,1-5.385,8.986,8.986,0,0,1,2.17-3.335A8.979,8.979,0,0,1,11.9,6.393a16.053,16.053,0,0,1,5.385-1C20.339,5.255,21.257,5.225,29,5.225ZM29,0c-7.876,0-8.864.034-11.957.174A21.286,21.286,0,0,0,10,1.522,14.211,14.211,0,0,0,4.867,4.867,14.211,14.211,0,0,0,1.522,10,21.288,21.288,0,0,0,.174,17.043C.034,20.136,0,21.124,0,29s.034,8.864.174,11.957A21.288,21.288,0,0,0,1.522,48a14.211,14.211,0,0,0,3.345,5.137A14.217,14.217,0,0,0,10,56.478a21.288,21.288,0,0,0,7.039,1.348C20.136,57.966,21.124,58,29,58s8.864-.034,11.957-.174A21.288,21.288,0,0,0,48,56.478,14.829,14.829,0,0,0,56.478,48a21.288,21.288,0,0,0,1.348-7.039C57.966,37.864,58,36.876,58,29s-.034-8.864-.174-11.957A21.288,21.288,0,0,0,56.478,10a14.217,14.217,0,0,0-3.345-5.137A14.217,14.217,0,0,0,48,1.522,21.288,21.288,0,0,0,40.957.174C37.864.034,36.876,0,29,0Z" fill-rule="evenodd" fill="url(#radial-gradient)"/>
  </g>
</svg>
