<svg xmlns="http://www.w3.org/2000/svg" width="127.314" height="32.27" viewBox="0 0 127.314 32.27">
  <g id="linkedin" transform="translate(-10.827 -177.439)">
    <g id="Group_729" data-name="Group 729" transform="translate(10.827 181.367)">
      <path id="Path_9423" data-name="Path 9423" d="M10.827,196.965h4.91v18.479H24.4v3.295H10.827Z" transform="translate(-10.827 -195.802)" fill="#017bb5"/>
      <path id="Path_9424" data-name="Path 9424" d="M74.752,199.3a2.448,2.448,0,0,1-2.649,2.455,2.461,2.461,0,1,1,2.649-2.455Zm-5.072,19.35V203.971h4.911v14.677Z" transform="translate(-54.239 -195.711)" fill="#017bb5"/>
      <path id="Path_9425" data-name="Path 9425" d="M100.28,227.142c0-1.971-.065-3.338-.129-4.759h4.48l.011,1.917h.1a5.673,5.673,0,0,1,4.878-2.552c3.23,0,5.653,2.164,5.653,6.816v8.5h-4.91v-7.914c0-2.035-.711-3.424-2.488-3.424a2.7,2.7,0,0,0-2.52,1.842,3.534,3.534,0,0,0-.161,1.228v8.27h-4.91Z" transform="translate(-76.86 -214.122)" fill="#017bb5"/>
      <path id="Path_9426" data-name="Path 9426" d="M174.813,207.139h.064a21.217,21.217,0,0,1,1.131-1.906l3.2-4.469h5.912l-5.653,6.117,6.461,8.56h-6.041l-3.844-5.653-1.228,1.55v4.1H169.9V192.5h4.91Z" transform="translate(-128.425 -192.504)" fill="#017bb5"/>
      <path id="Path_9427" data-name="Path 9427" d="M233.19,233.155c.129,2.035,2.164,3,4.458,3a13.01,13.01,0,0,0,4.361-.679l.646,2.487a14.932,14.932,0,0,1-5.718,1c-5.363,0-8.432-2.261-8.432-7.2,0-4.006,2.488-7.871,7.979-7.871,5.1,0,7.043,3.413,7.043,7.322a11.665,11.665,0,0,1-.161,1.938H233.19Zm5.782-3.36c0-1.2-.517-3.2-2.778-3.2-2.067,0-2.908,1.906-3.037,3.2Z" transform="translate(-171.747 -215.709)" fill="#017bb5"/>
      <path id="Path_9428" data-name="Path 9428" d="M307.866,192.505v19.061c0,1.776.065,2.81.129,3.876h-4.362l-.193-2.294h-.1A5.518,5.518,0,0,1,298.4,215.8c-3.747,0-6.752-2.358-6.752-7.268-.032-5.33,3.3-8.431,7.075-8.431a4.853,4.853,0,0,1,4.167,1.777h.065v-9.369Zm-4.91,14.667a4.409,4.409,0,0,0-.065-.9,2.953,2.953,0,0,0-2.875-2.391c-2.261,0-3.392,2-3.392,4.491,0,2.681,1.324,4.361,3.359,4.361a2.909,2.909,0,0,0,2.875-2.358,6.4,6.4,0,0,0,.1-1.131Z" transform="translate(-218.425 -192.505)" fill="#017bb5"/>
    </g>
    <g id="Group_730" data-name="Group 730" transform="translate(105.871 177.439)">
      <path id="Path_9429" data-name="Path 9429" d="M406.291,177.439h-29.64a1.319,1.319,0,0,0-1.315,1.315v29.64a1.318,1.318,0,0,0,1.315,1.315h29.64a1.318,1.318,0,0,0,1.315-1.315V178.753A1.318,1.318,0,0,0,406.291,177.439Zm-20.56,26.328h-4.479V189.328h4.479Zm-2.2-16.037a2.244,2.244,0,1,1,2.416-2.239A2.232,2.232,0,0,1,383.528,187.73Zm18.813,16.039h-4.479v-7.716c0-1.856-.648-3.123-2.269-3.123a2.459,2.459,0,0,0-2.3,1.679,3.226,3.226,0,0,0-.147,1.12v8.037h-4.479v-9.54c0-1.8-.059-3.6-.118-4.9h4.429l0,2.3h.154a4.426,4.426,0,0,1,4.055-2.328c2.946,0,5.157,1.974,5.157,6.217Z" transform="translate(-375.336 -177.439)" fill="#017bb5"/>
    </g>
  </g>
</svg>
