<svg id="sales_report" data-name="sales report" xmlns="http://www.w3.org/2000/svg" width="28" height="28" viewBox="0 0 28 28">
  <path id="sales_report_fill" d="M12.378,27.894h2.333V17.2H12.378Zm6.456,0h2.333V12.106H18.833Zm6.456,0h2.333V22.139H25.289ZM8.333,34A2.239,2.239,0,0,1,6.7,33.3,2.239,2.239,0,0,1,6,31.667V8.333A2.239,2.239,0,0,1,6.7,6.7,2.239,2.239,0,0,1,8.333,6H31.667a2.239,2.239,0,0,1,1.633.7A2.239,2.239,0,0,1,34,8.333V31.667A2.392,2.392,0,0,1,31.667,34Z" transform="translate(-6 -6)" fill="#5046ba"/>
</svg>
