<svg xmlns="http://www.w3.org/2000/svg" width="18.203" height="22.512" viewBox="0 0 18.203 22.512">
  <g id="shoot_campaign" transform="translate(-123.271 -45.079)">
    <path id="Path_9443" data-name="Path 9443" d="M310.27,161.16a4.019,4.019,0,1,0-2.843-1.177A4.022,4.022,0,0,0,310.27,161.16Z" transform="translate(-177.896 -108.041)" fill="#737376"/>
    <path id="Path_9444" data-name="Path 9444" d="M268.074,233.65a4.45,4.45,0,0,0-3.284-4.173A5.666,5.666,0,0,1,263.5,230.9a2.93,2.93,0,0,1,2.93,2.412H253.639a2.931,2.931,0,0,1,2.931-2.412,5.658,5.658,0,0,1-1.286-1.427A4.449,4.449,0,0,0,252,233.65a2.223,2.223,0,0,0-1.049,2.147l.671,6.834a2.633,2.633,0,0,0,2.569,2.339h11.7a2.633,2.633,0,0,0,2.565-2.328l.671-6.834a2.223,2.223,0,0,0-1.045-2.159Z" transform="translate(-127.661 -177.378)" fill="#737376"/>
  </g>
</svg>
