<svg xmlns="http://www.w3.org/2000/svg" width="23.189" height="23.189" viewBox="0 0 23.189 23.189">
  <g id="text_field" transform="translate(-116.67 -46.668)">
    <path id="Path_173" data-name="Path 173" d="M220.435,140h-6.957A3.479,3.479,0,0,0,210,143.478v1.159h2.319v-1.159a1.159,1.159,0,0,1,1.159-1.159H215.8v9.276h-3.478v2.319h9.276v-2.319h-3.478v-9.276h2.319a1.159,1.159,0,0,1,1.159,1.159v1.159h2.319v-1.159A3.479,3.479,0,0,0,220.435,140Z" transform="translate(-88.692 -88.694)" fill="#333"/>
    <path id="Path_174" data-name="Path 174" d="M136.381,46.668H120.148a3.478,3.478,0,0,0-3.478,3.478V66.379a3.478,3.478,0,0,0,3.478,3.478h16.233a3.478,3.478,0,0,0,3.478-3.478V50.146a3.478,3.478,0,0,0-3.478-3.478Zm1.159,19.711h0a1.16,1.16,0,0,1-1.16,1.16H120.148a1.16,1.16,0,0,1-1.16-1.16V50.147a1.16,1.16,0,0,1,1.16-1.16h16.233a1.16,1.16,0,0,1,1.16,1.16Z" fill="#333"/>
  </g>
</svg>
