<svg xmlns="http://www.w3.org/2000/svg" width="71.31" height="39.069" viewBox="0 0 71.31 39.069">
  <g id="ticket_sales" transform="translate(-104.444 -145.47)">
    <path id="Path_236" data-name="Path 236" d="M168.721,145.47a7.028,7.028,0,0,0-4.695,12.262l-6.55,8.182a7.019,7.019,0,0,0-9.892.53l-12.66-6.042a7.032,7.032,0,1,0-12.947,2.371l-8.414,8.017a7.055,7.055,0,1,0,2.828,1.693l7.795-7.427a7.017,7.017,0,0,0,9.48-1.734l12.372,5.905a7.032,7.032,0,1,0,13.325-.584l7.494-9.36a7.032,7.032,0,1,0,1.865-13.812Zm-57.246,35.892a3.856,3.856,0,1,1,3.856-3.856A3.86,3.86,0,0,1,111.476,181.362ZM128,163.012a3.856,3.856,0,1,1,3.856-3.856A3.86,3.86,0,0,1,128,163.012Zm24.793,12a3.856,3.856,0,1,1,3.856-3.856A3.86,3.86,0,0,1,152.8,175.014Zm15.924-18.655a3.856,3.856,0,1,1,3.856-3.856A3.86,3.86,0,0,1,168.721,156.359Z" transform="translate(0)" fill="#333"/>
  </g>
</svg>
