<svg xmlns="http://www.w3.org/2000/svg" width="48" height="38.5" viewBox="0 0 48 38.5">
  <path id="tickets_icon" d="M7.563,46a3.418,3.418,0,0,1-2.494-1.069A3.418,3.418,0,0,1,4,42.438V33.353a6.271,6.271,0,0,0,3.652-2.286A6.328,6.328,0,0,0,9.106,27a6.447,6.447,0,0,0-1.455-4.1A5.948,5.948,0,0,0,4,20.647V11.563A3.418,3.418,0,0,1,5.069,9.069,3.418,3.418,0,0,1,7.563,8H47.938a3.418,3.418,0,0,1,2.494,1.069A3.418,3.418,0,0,1,51.5,11.563v9.084A5.83,5.83,0,0,0,47.878,22.9,6.531,6.531,0,0,0,46.453,27a6.41,6.41,0,0,0,1.425,4.067A6.141,6.141,0,0,0,51.5,33.353v9.084A3.653,3.653,0,0,1,47.938,46Zm0-3.562H47.938V35.966a12.815,12.815,0,0,1-3.592-3.83,9.794,9.794,0,0,1,0-10.272,12.815,12.815,0,0,1,3.592-3.83V11.563H7.563v6.472a13.161,13.161,0,0,1,3.622,3.83,9.627,9.627,0,0,1,0,10.272,13.161,13.161,0,0,1-3.622,3.83Zm14.013-5.819,6.175-4.809,6.175,4.809-2.375-7.6,5.819-4.869H30.244L27.75,16.906,25.256,24.15H18.131l5.819,4.869ZM27.75,27Z" transform="translate(-3.75 -7.75)" fill="#333" stroke="#333" stroke-width="0.5"/>
</svg>
