<svg xmlns="http://www.w3.org/2000/svg" width="34" height="34" viewBox="0 0 34 34">
  <g id="tickets" transform="translate(-31 -245)">
    <rect id="Rectangle_58" data-name="Rectangle 58" width="34" height="34" transform="translate(31 245)" fill="#fff" opacity="0"/>
    <path id="local_activity_FILL1_wght400_GRAD0_opsz48" d="M6.063,30a1.979,1.979,0,0,1-1.444-.619A1.979,1.979,0,0,1,4,27.938V22.678a3.63,3.63,0,0,0,2.114-1.323A3.664,3.664,0,0,0,6.956,19a3.732,3.732,0,0,0-.842-2.372A3.444,3.444,0,0,0,4,15.322V10.063a1.979,1.979,0,0,1,.619-1.444A1.979,1.979,0,0,1,6.063,8H29.438A2.115,2.115,0,0,1,31.5,10.063v5.259a3.375,3.375,0,0,0-2.1,1.306A3.781,3.781,0,0,0,28.578,19a3.711,3.711,0,0,0,.825,2.355,3.556,3.556,0,0,0,2.1,1.323v5.259A2.115,2.115,0,0,1,29.438,30Zm8.112-5.431,3.575-2.784,3.575,2.784-1.375-4.4,3.369-2.819H19.194L17.75,13.156,16.306,17.35H12.181l3.369,2.819Z" transform="translate(30.5 243.5)" fill="#5046ba"/>
  </g>
</svg>
