<svg xmlns="http://www.w3.org/2000/svg" width="64.378" height="52.32" viewBox="0 0 64.378 52.32">
  <path id="twitter" d="M64.379,9.192a26.216,26.216,0,0,1-7.586,2.079,13.257,13.257,0,0,0,5.81-7.3,26.45,26.45,0,0,1-8.387,3.2,13.224,13.224,0,0,0-22.51,12.048A37.5,37.5,0,0,1,4.48,5.417,13.229,13.229,0,0,0,8.567,23.053,13.168,13.168,0,0,1,2.587,21.4c0,.054,0,.113,0,.165A13.216,13.216,0,0,0,13.18,34.519a13.269,13.269,0,0,1-5.963.227,13.224,13.224,0,0,0,12.336,9.172,26.494,26.494,0,0,1-16.4,5.657A26.693,26.693,0,0,1,0,49.39a37.413,37.413,0,0,0,20.246,5.93c24.293,0,37.58-20.125,37.58-37.58,0-.571-.016-1.143-.04-1.71A26.794,26.794,0,0,0,64.379,9.192Z" transform="translate(-0.001 -3)" fill="#55acee"/>
</svg>
