<svg xmlns="http://www.w3.org/2000/svg" width="18.781" height="16.696" viewBox="0 0 18.781 16.696">
  <path id="url_icon" d="M11.854,22.491H8.245A4.17,4.17,0,0,1,4,18.245,4.17,4.17,0,0,1,8.245,14h3.609v1.274H8.245a3,3,0,0,0-2.123,5.095,2.88,2.88,0,0,0,2.123.849h3.609ZM9.2,18.882V17.609h6.58v1.274Zm3.927,3.609V21.217h3.609a3,3,0,0,0,2.123-5.095,2.88,2.88,0,0,0-2.123-.849H13.128V14h3.609a4.17,4.17,0,0,1,4.245,4.245,4.17,4.17,0,0,1-4.245,4.245Z" transform="matrix(0.819, -0.574, 0.574, 0.819, -11.307, 0.567)" fill="#5046ba"/>
</svg>
