<svg id="view_icon" xmlns="http://www.w3.org/2000/svg" width="20" height="13.558" viewBox="0 0 20 13.558">
  <path id="Path_245" data-name="Path 245" d="M94,99.68c-6.737,0-10,6.779-10,6.779s3.242,6.779,10,6.779,10-6.779,10-6.779S100.737,99.68,94,99.68ZM94,111.7a5.242,5.242,0,1,1,5.242-5.242A5.243,5.243,0,0,1,94,111.7Z" transform="translate(-84 -99.68)" fill="#737376"/>
  <path id="Path_246" data-name="Path 246" d="M265.151,192.259a1.5,1.5,0,0,1-1.495-1.495,1.4,1.4,0,0,1,.189-.716,3.528,3.528,0,0,0-1.158-.211,3.4,3.4,0,1,0,3.389,3.389,3.054,3.054,0,0,0-.211-1.158,1.294,1.294,0,0,1-.716.19Z" transform="translate(-252.688 -186.448)" fill="#737376"/>
</svg>
